HIERARCHY
ROOT Hips
{
	OFFSET -0.001795 -0.223333 0.028219
	CHANNELS 6 Xposition Yposition Zposition Zrotation Yrotation Xrotation 
	JOINT LeftUpLeg
	{
		OFFSET 0.069520 -0.091406 -0.006815
		CHANNELS 3 Zrotation Yrotation Xrotation
		JOINT LeftLeg
		{
			OFFSET 0.034277 -0.375199 -0.004496
			CHANNELS 3 Zrotation Yrotation Xrotation
			JOINT LeftFoot
			{
				OFFSET -0.013596 -0.397961 -0.043693
				CHANNELS 3 Zrotation Yrotation Xrotation
				JOINT LeftToe
				{
					OFFSET 0.026358 -0.055791 0.119288
					CHANNELS 3 Zrotation Yrotation Xrotation
					End Site
					{
						OFFSET 0.000000 0.000000 0.000000
					}
				}
			}
		}
	}
	JOINT RightUpLeg
	{
		OFFSET -0.067670 -0.090522 -0.004320
		CHANNELS 3 Zrotation Yrotation Xrotation
		JOINT RightLeg
		{
			OFFSET -0.038290 -0.382569 -0.008850
			CHANNELS 3 Zrotation Yrotation Xrotation
			JOINT RightFoot
			{
				OFFSET 0.015774 -0.398415 -0.042312
				CHANNELS 3 Zrotation Yrotation Xrotation
				JOINT RightToe
				{
					OFFSET -0.025372 -0.048144 0.123348
					CHANNELS 3 Zrotation Yrotation Xrotation
					End Site
					{
						OFFSET 0.000000 0.000000 0.000000
					}
				}
			}
		}
	}
	JOINT Spine
	{
		OFFSET -0.002533 0.108963 -0.026696
		CHANNELS 3 Zrotation Yrotation Xrotation
		JOINT Spine1
		{
			OFFSET 0.005487 0.135180 0.001092
			CHANNELS 3 Zrotation Yrotation Xrotation
			JOINT Spine2
			{
				OFFSET 0.001457 0.052922 0.025425
				CHANNELS 3 Zrotation Yrotation Xrotation
				JOINT Neck
				{
					OFFSET -0.002778 0.213870 -0.042857
					CHANNELS 3 Zrotation Yrotation Xrotation
					JOINT Head
					{
						OFFSET 0.005152 0.064970 0.051349
						CHANNELS 3 Zrotation Yrotation Xrotation
						End Site
						{
							OFFSET 0.000000 0.000000 0.000000
						}
					}
				}
				JOINT LeftShoulder
				{
					OFFSET 0.078845 0.121749 -0.034090
					CHANNELS 3 Zrotation Yrotation Xrotation
					JOINT LeftArm
					{
						OFFSET 0.090977 0.030469 -0.008868
						CHANNELS 3 Zrotation Yrotation Xrotation
						JOINT LeftForeArm
						{
							OFFSET 0.259612 -0.012772 -0.027456
							CHANNELS 3 Zrotation Yrotation Xrotation
							JOINT LeftHand
							{
								OFFSET 0.249234 0.008986 -0.001171
								CHANNELS 3 Zrotation Yrotation Xrotation
								End Site
								{
									OFFSET 0.000000 0.000000 0.000000
								}
							}
						}
					}
				}
				JOINT RightShoulder
				{
					OFFSET -0.081759 0.118833 -0.038615
					CHANNELS 3 Zrotation Yrotation Xrotation
					JOINT RightArm
					{
						OFFSET -0.096012 0.032551 -0.009143
						CHANNELS 3 Zrotation Yrotation Xrotation
						JOINT RightForeArm
						{
							OFFSET -0.253742 -0.013329 -0.021401
							CHANNELS 3 Zrotation Yrotation Xrotation
							JOINT RightHand
							{
								OFFSET -0.255298 0.007772 -0.005559
								CHANNELS 3 Zrotation Yrotation Xrotation
								End Site
								{
									OFFSET 0.000000 0.000000 0.000000
								}
							}
						}
					}
				}
			}
		}
	}
}
MOTION
Frames: 13
Frame Time: 0.050000
0.000000 0.933598 0.000000 -0.511705 20.947250 -4.942905 2.348432 0.107230 16.256881 0.239673 -0.157009 3.053864 -0.008142 -1.558792 -2.102372 0.000000 0.000000 0.000000 -3.122021 0.628482 -18.279523 1.672782 -0.432065 12.201357 -4.926974 -11.597347 10.901152 0.000000 0.000000 0.000000 2.141256 -0.685658 9.371080 6.604360 -4.644540 6.806562 -5.671754 -2.565605 7.244614 5.084004 -5.094491 3.805171 0.000000 0.000000 0.000000 -26.263678 -18.355338 5.382232 -45.776668 -14.453802 0.864849 3.294275 -34.773056 -0.361607 0.000000 0.000000 0.000000 23.019242 11.638666 7.661725 51.465694 18.940779 1.988359 -10.322964 21.382972 -0.680556 0.000000 0.000000 0.000000 
0.002176 0.933051 0.041298 0.136965 22.730598 -4.271290 2.998817 -0.116528 16.356933 0.089274 -0.353554 6.641541 -0.231761 -3.206133 -3.521679 0.000000 0.000000 0.000000 -3.851078 0.415126 -16.663371 3.524898 -1.168327 14.646481 -5.501732 -12.728980 9.450118 0.000000 0.000000 0.000000 2.827455 -0.551038 7.347171 6.094970 -4.242839 6.099430 -5.103972 -3.029549 8.399288 4.858908 -5.508896 6.078181 0.000000 0.000000 0.000000 -26.023835 -16.205729 3.966321 -47.646446 -13.265013 0.297686 2.270981 -32.895917 -0.031902 0.000000 0.000000 0.000000 21.450410 11.460025 7.468970 51.722388 20.170926 2.571497 -8.522485 19.618217 -0.363686 0.000000 0.000000 0.000000 
0.005615 0.935489 0.082054 0.908763 22.295423 -3.597425 2.919898 0.015095 13.181343 0.264407 -0.993869 13.869618 -0.504334 -0.404979 0.868842 0.000000 0.000000 0.000000 -4.318392 0.352496 -15.177972 4.428553 -1.573582 16.412468 -5.958196 -13.931514 7.947668 0.000000 0.000000 0.000000 3.868605 -0.504652 6.170664 6.132304 -4.279764 6.243034 -6.219981 -2.005585 9.088579 5.429011 -5.515029 4.000788 0.000000 0.000000 0.000000 -24.779253 -14.525013 2.698639 -49.983530 -12.081941 -0.228419 0.320948 -30.002329 0.442975 0.000000 0.000000 0.000000 21.296740 11.766270 7.954899 49.441806 21.441688 2.729263 -8.751420 20.209533 -0.398582 0.000000 0.000000 0.000000 
0.010429 0.938855 0.119564 0.625158 23.233409 -4.026576 4.042303 -0.122575 8.971064 -1.712117 -1.742593 23.816229 -0.319123 1.611365 3.384278 0.000000 0.000000 0.000000 -3.485038 0.446630 -12.932791 5.313867 -2.018434 17.229268 -6.147498 -14.693882 5.453039 0.000000 0.000000 0.000000 4.983728 -0.401029 4.524614 6.586257 -5.172220 8.746988 -5.621091 -1.546624 7.314660 5.393527 -5.797986 5.276509 0.000000 0.000000 0.000000 -26.505729 -13.515763 1.669721 -49.567549 -8.105976 -1.519045 -1.991343 -30.391144 1.000393 0.000000 0.000000 0.000000 19.597121 12.127120 7.940879 49.344606 22.827154 3.557048 -8.261415 19.656730 -0.323929 0.000000 0.000000 0.000000 
0.016276 0.941537 0.152784 0.835926 24.097948 -4.591382 6.200744 -0.340554 2.315625 -7.601934 -1.502540 35.440642 1.982115 7.479707 6.973693 0.000000 0.000000 0.000000 -3.109588 0.377996 -9.197157 4.661637 -1.829714 16.870880 -5.764978 -14.284147 3.241496 0.000000 0.000000 0.000000 6.210497 -0.526736 5.110886 6.451363 -4.855928 7.650549 -4.516664 -1.448147 7.914278 5.837897 -6.881835 7.411643 0.000000 0.000000 0.000000 -28.142753 -13.311373 1.239502 -48.563579 -5.059460 -2.606565 -4.805020 -29.168033 1.709514 0.000000 0.000000 0.000000 19.464552 12.324852 8.139414 46.887701 24.218175 3.705995 -8.550104 20.389671 -0.388258 0.000000 0.000000 0.000000 
0.023069 0.944916 0.183006 0.985790 24.104961 -5.354809 6.473910 -0.446345 -3.988374 -10.543283 -1.308579 42.816964 4.521929 11.715574 7.157895 0.000000 0.000000 0.000000 -2.435623 0.280615 -5.713532 4.086247 -1.528781 15.709876 -4.981103 -12.765161 1.833945 0.000000 0.000000 0.000000 6.713010 -0.674436 6.187085 6.228779 -4.605661 7.205774 -3.609967 -0.361645 7.894517 7.348877 -7.852932 5.685524 0.000000 0.000000 0.000000 -28.271514 -12.200994 0.109452 -48.915260 -2.784590 -3.432418 -6.659788 -28.599765 2.071203 0.000000 0.000000 0.000000 18.830436 13.085738 8.729601 46.469971 27.369430 4.898397 -9.003505 19.122342 -0.416798 0.000000 0.000000 0.000000 
0.030784 0.948119 0.212158 1.952675 22.543863 -4.999370 5.022901 -0.696603 -9.267118 -11.895993 -0.466880 43.194100 7.100390 15.469384 5.290748 0.000000 0.000000 0.000000 -3.115510 0.042188 -2.747342 3.313898 -1.073617 14.124466 -4.248639 -11.123349 1.038070 0.000000 0.000000 0.000000 6.456092 -0.707162 6.660535 5.382013 -4.169169 7.834887 -3.329531 1.504422 6.745195 7.605647 -8.252564 6.124054 0.000000 0.000000 0.000000 -28.135329 -11.279705 -0.855415 -47.391787 -0.586210 -3.933740 -9.322315 -27.550855 2.578146 0.000000 0.000000 0.000000 19.505144 13.461871 9.339104 44.707858 29.304347 5.299830 -8.709473 20.282825 -0.397776 0.000000 0.000000 0.000000 
0.039472 0.949377 0.241206 2.333313 20.528857 -5.123449 4.949658 -1.003732 -13.359270 -11.063846 -0.041329 38.986160 7.750405 16.937014 6.535177 0.000000 0.000000 0.000000 -3.186006 -0.154139 -0.007251 2.579804 -0.708358 13.097220 -3.529134 -9.376206 -0.250411 0.000000 0.000000 0.000000 6.182421 -0.769022 7.468835 4.537139 -3.585556 7.888125 -2.913392 3.100528 6.749503 7.822605 -8.200077 5.306863 0.000000 0.000000 0.000000 -28.190614 -10.815182 -1.387548 -47.679043 1.751120 -4.806591 -8.566487 -27.713825 2.367858 0.000000 0.000000 0.000000 19.162266 14.201152 9.832368 44.509900 32.021399 6.370030 -8.041726 21.200147 -0.313677 0.000000 0.000000 0.000000 
0.049536 0.947063 0.270989 2.467938 18.078003 -5.215758 6.319985 -1.091811 -16.169116 -9.394611 0.243311 31.513936 7.071428 16.259482 8.024276 0.000000 0.000000 0.000000 -3.533090 -0.368433 2.660044 2.544029 -0.577028 12.420152 -2.597461 -6.675590 -2.822571 0.000000 0.000000 0.000000 5.581370 -0.752001 7.855686 3.698064 -3.068012 8.323658 -2.573422 4.720879 6.491728 7.190204 -7.744792 5.734446 0.000000 0.000000 0.000000 -28.392863 -10.466865 -1.787918 -46.468035 3.191219 -5.103221 -8.607308 -26.841537 2.302036 0.000000 0.000000 0.000000 19.560164 14.046693 9.922483 43.906276 33.252481 6.703457 -6.469971 24.568638 -0.038772 0.000000 0.000000 0.000000 
0.061658 0.942117 0.301667 2.230010 15.915376 -5.564358 8.197786 -0.867555 -16.414802 -6.149223 0.099000 20.396357 4.501251 12.885426 10.506837 0.000000 0.000000 0.000000 -3.896902 -0.563162 5.083101 2.318117 -0.435705 12.232523 -1.948101 -4.379244 -4.549711 0.000000 0.000000 0.000000 5.301945 -0.758415 8.275494 2.606723 -2.382460 8.667833 -1.836065 5.281367 6.108421 5.804843 -6.701145 6.720574 0.000000 0.000000 0.000000 -29.208057 -9.798058 -2.106637 -45.276534 4.689623 -5.474642 -8.191429 -26.669886 2.239617 0.000000 0.000000 0.000000 19.420633 14.330159 9.861822 44.144219 33.708628 7.012359 -4.422276 27.622016 0.437239 0.000000 0.000000 0.000000 
0.076379 0.936287 0.333180 1.742357 13.105634 -5.955248 10.591465 -0.500657 -15.490524 -3.502706 0.115414 9.007873 2.077211 9.789650 13.059934 0.000000 0.000000 0.000000 -4.166601 -0.698391 7.138092 2.135356 -0.316447 13.077650 -1.203729 -1.264519 -6.392495 0.000000 0.000000 0.000000 5.097201 -0.733698 8.395139 1.605468 -1.625444 8.239424 -1.619949 5.366378 7.014191 4.542138 -5.470290 6.860234 0.000000 0.000000 0.000000 -29.741414 -9.129271 -2.068994 -44.804442 5.094016 -5.759178 -7.178385 -25.500112 2.014352 0.000000 0.000000 0.000000 20.515499 14.717104 10.012159 43.013889 33.437562 6.517373 -1.243551 31.547884 1.350353 0.000000 0.000000 0.000000 
0.094561 0.930164 0.365676 1.538488 10.156168 -5.965961 12.833324 -0.161824 -14.737573 -2.489992 0.206539 1.116724 1.143270 8.675347 14.953474 0.000000 0.000000 0.000000 -4.861850 -0.688917 8.159508 0.989496 0.065757 14.437349 -0.534773 2.176071 -8.279661 0.000000 0.000000 0.000000 4.394603 -0.635079 8.085561 0.631438 -0.999531 8.753067 -1.575490 5.661323 6.955655 3.234856 -4.434438 7.952241 0.000000 0.000000 0.000000 -30.517775 -9.285466 -1.575066 -43.672423 6.180329 -6.067480 -6.293016 -24.612533 1.843422 0.000000 0.000000 0.000000 22.438265 14.345227 9.841366 41.783178 32.733327 5.898541 2.461298 33.810672 2.490269 0.000000 0.000000 0.000000 
0.116978 0.924561 0.399180 0.691104 8.048626 -6.189717 13.914510 0.048143 -15.207826 -1.931784 0.198905 -0.756939 -0.446123 6.766116 17.104647 0.000000 0.000000 0.000000 -5.165972 -0.824514 10.805088 0.519124 0.245457 13.761873 0.560596 6.362017 -8.530468 0.000000 0.000000 0.000000 4.010265 -0.586094 7.926997 0.612186 -0.838696 7.855311 -2.197058 5.057500 8.469203 3.015945 -4.070990 7.668946 0.000000 0.000000 0.000000 -30.919438 -8.943732 -1.178058 -43.653268 5.727001 -6.195730 -4.453795 -22.019253 1.385175 0.000000 0.000000 0.000000 24.165025 13.172856 9.026798 41.631838 30.451125 4.912266 7.850013 35.830236 4.300575 0.000000 0.000000 0.000000 
